<?xml version="1.0" encoding="UTF-8"?>
<svg width="304px" height="169px" viewBox="0 0 304 169" version="1.1" xmlns="http://www.w3.org/2000/svg" xmlns:xlink="http://www.w3.org/1999/xlink">
    <!-- Generator: Sketch 41 (35326) - http://www.bohemiancoding.com/sketch -->
    <title>aside-background</title>
    <desc>Created with Sketch.</desc>
    <defs></defs>
    <g id="Page-1" stroke="none" stroke-width="1" fill="none" fill-rule="evenodd" opacity="0.116847826">
        <g id="aside-background" fill="#FFFFFF">
            <g transform="translate(28.000000, 10.000000)">
                <g id="done-shopping" transform="translate(0.000000, 90.956453)">
                    <path d="M26.6192367,14.5705677 C27.3955484,14.8644872 28.2240693,15.0140938 29.0541072,15.0140938 C31.0037987,15.0140938 32.8906622,14.1668696 34.1843886,12.7130267 C35.4906301,11.2451938 36.1039934,9.25254054 35.8555889,7.30639516 C35.6118616,5.39755689 34.5406248,3.65004664 32.9551336,2.55465454 C31.3312124,1.43241644 29.2532101,1.06564725 27.3396732,1.5565634 C25.4817586,2.03323731 23.8793279,3.30167893 22.9846922,4.99247229 C22.0617396,6.73733575 21.9467024,8.85048084 22.6730803,10.6854611 C23.3753131,12.4606996 24.829586,13.892738 26.6192367,14.5705677 Z" id="Shape"></path>
                    <path d="M33.6073464,50.276882 C33.6083638,50.2762488 33.6086181,50.275489 33.6086181,50.2747291 C33.6078551,50.2759955 33.6065834,50.2773886 33.6058203,50.2785284 C33.6039127,50.2811879 33.6023867,50.2839741 33.6006062,50.2866336 C33.6023867,50.2834675 33.6051845,50.2800481 33.6073464,50.276882 Z" id="Shape"></path>
                    <path d="M46.0479164,1.34468281 C46.0097645,1.31834097 45.9718669,1.29212577 45.9371487,1.26806351 C45.9686876,1.28984619 46.004296,1.31441502 46.0479164,1.34468281 Z" id="Shape"></path>
                    <path d="M45.8940092,1.2378957 C45.8407237,1.20104245 45.8023174,1.17457397 45.7934153,1.16824179 C45.8023174,1.17457397 45.8342379,1.19660993 45.8940092,1.2378957 Z" id="Shape"></path>
                    <path d="M45.7934302,1.16837604 C45.7897421,1.16584317 45.7905052,1.16634974 45.7934302,1.16837604 L45.7934302,1.16837604 Z" id="Shape"></path>
                    <path d="M48.838236,3.88283794 L49.8453807,2.71774709 C50.1157814,2.40492196 50.6426772,2.33711377 51.0219208,2.56675414 L61.5224184,8.91261734 L63.4192686,5.58321016 C63.6023169,5.26194051 63.4357025,4.87437513 63.047357,4.71745842 L51.6218842,0.107131894 C51.2334123,-0.0496587837 50.7702295,0.0835628772 50.586802,0.404958559 L49.9051747,1.60155879 L49.3397225,1.37343088 C48.256097,0.936206714 47.0523778,0.957254981 46.0470029,1.34419017 C46.0464972,1.34431621 46.0462444,1.34444225 46.0459916,1.34456829 C45.1220277,0.718539914 43.8631917,0.948684429 43.2247982,1.86522929 C43.2247982,1.86522929 36.856792,11.545037 34.6729808,14.1373768 C33.0436238,16.0716746 31.4912532,16.6116194 29.1519521,16.2892154 C27.9966496,16.13003 13.6829837,12.5819477 13.6829837,12.5819477 C12.8988343,12.3930175 12.0856095,12.7033219 11.6033381,13.3100665 C10.2008951,13.1310932 8.76684855,13.8119479 8.06006484,15.1262672 L7.78991696,15.6277705 L6.5020056,14.9388494 C6.15600899,14.7539523 5.72544106,14.8833929 5.53986451,15.2281055 L0.0844449146,25.3660596 C-0.100752391,25.7107723 0.0290753449,26.1401821 0.37481912,26.3252052 L3.95841858,28.2419838 L7.59334235,17.0712782 C7.72443423,16.667454 8.15955308,16.4465102 8.56445886,16.5774632 L10.07309,17.0654805 L10.1331369,16.8814657 L9.04205301,16.297912 L9.31220088,15.7964087 C9.692203,15.0900944 10.4246489,14.6937064 11.1778267,14.7013947 C11.2058907,15.0677858 11.331926,15.4220772 11.5412685,15.723685 C11.1917323,16.1084776 10.9158958,16.5704051 10.7451097,17.0953514 L10.5538445,17.6829383 L9.04508696,17.194921 C8.64030759,17.063968 8.20518873,17.2849118 8.07409685,17.688736 L4.20998352,29.562857 C4.07838598,29.9666813 4.30036992,30.4001243 4.7052757,30.5310773 L14.970263,33.8517879 C15.3751688,33.9827409 15.8100348,33.761545 15.9416323,33.3579729 L19.8056193,21.4838519 C19.9367111,21.0800277 19.71498,20.6464586 19.3100743,20.5155056 L17.8013167,20.0273623 L17.9927083,19.4400274 C18.0891626,19.1439653 18.1459227,18.8446262 18.1679189,18.5473036 L28.0272419,22.1653368 C28.1156056,22.4319061 28.8770004,24.4855615 29.3088325,26.6347533 C29.5836577,28.0022604 29.7003384,29.3953532 29.7796003,30.7863033 C29.8350963,31.7615816 29.8200529,32.7373641 29.8089284,33.7137768 C29.7972983,34.7196823 29.9627749,35.7040353 30.3624977,36.6315454 C30.3282394,37.9021297 30.2625038,39.1724619 30.154293,40.4390129 C30.0357161,41.8247955 29.8177775,43.2022596 29.5904841,44.5754384 C29.3033967,46.3105969 28.8537402,46.9775875 28.8236535,47.022835 C28.2664182,47.2329395 27.592123,47.1609721 27.0150406,47.0854756 C26.3262078,46.9952328 25.6472353,46.8330225 24.9806514,46.6384205 C24.3948464,46.4673876 23.8172584,46.2692566 23.2477608,46.0504555 C22.7951968,45.8763977 22.3545157,45.6776365 21.9082723,45.4888323 C21.7005733,45.4008581 21.4945176,45.3038092 21.2660865,45.2544025 C21.0315875,45.2036094 20.7896301,45.1872245 20.5503273,45.2054999 C20.0763992,45.2416727 19.6159974,45.4142181 19.2362482,45.6991889 C18.4429969,46.2943381 18.0760155,47.3343997 18.3182257,48.2934192 C18.4896439,48.9721313 18.9484022,49.5564413 19.5687184,49.8845169 C21.558989,50.9694479 23.6874306,51.9007392 25.9115681,52.3816983 C27.115793,52.6422179 28.3650215,52.7703981 29.5911162,52.5945757 C30.865122,52.4120734 32.0762997,51.8794388 33.0012749,50.9756238 C33.2207305,50.7611079 33.4232466,50.5252917 33.6056628,50.2785102 C33.7054039,50.1150395 33.8297958,49.9639206 33.9340878,49.8032227 C34.1148606,49.5251839 34.2812221,49.2385746 34.4353215,48.9450332 C34.7435201,48.3582025 35.0070945,47.7480549 35.241467,47.1284544 C35.7122348,45.8847162 36.0763087,44.6016542 36.3888054,43.3102737 C36.5937234,42.4622933 36.7763924,41.6092713 36.9422483,40.7528464 C37.2884977,40.7377219 37.6313339,40.6976419 37.9715155,40.6312202 C38.5866486,41.8845373 39.1566518,43.1609193 39.6403139,44.4709533 C38.3451969,44.9747252 37.7113544,46.4949898 38.2623953,47.7674647 C38.634939,48.6290572 39.0876295,49.4522082 39.7234946,50.1520946 C40.4147294,50.9128571 41.2897708,51.5034689 42.2883193,51.7774745 C42.8348094,51.9274591 43.4082257,51.9782522 43.9691271,51.8917905 C45.0954806,51.7158421 46.0382803,50.8415198 46.239153,49.6587837 C46.6727549,47.1120695 46.2587473,44.5086385 45.6720574,42.0190193 C45.3536191,40.6702918 44.9664114,39.337571 44.5343265,38.020605 C44.2516636,37.1583823 43.958129,36.2954034 43.6188324,35.4533467 C43.5517062,35.286347 43.4872348,35.1178348 43.4155578,34.9524736 C43.4993706,34.392867 43.5065762,33.8312438 43.4600557,33.2679821 C43.4134087,32.7049725 43.3747259,32.1400723 43.3164488,31.578071 C43.1786569,30.248123 42.9925747,28.9199396 42.7415154,27.6065026 C42.2185385,24.8709842 41.4831851,22.1679835 40.4019615,19.5960619 C40.1084269,18.8975619 39.7928962,18.2087669 39.4410845,17.5372389 L43.5219988,9.91663224 L43.9813893,10.1939148 L42.9744974,11.3592577 C42.7040967,11.6719568 42.7924605,12.1114497 43.1720834,12.340964 L54.3338554,19.0864922 C54.7133519,19.3156284 55.2403741,19.2479462 55.5106484,18.9352471 L62.3632015,11.0069828 C62.6337286,10.6942838 62.5453649,10.2546649 62.1656156,10.0255287 L51.0038435,3.28000048 C50.6243471,3.05048615 50.0974513,3.11829434 49.8269241,3.43099343 L48.8200323,4.59621032 L48.2674743,4.26246296 C47.8193348,3.99148229 47.3284671,3.80545091 46.8233146,3.69907524 C46.9647725,3.29814988 46.9736215,2.86937023 46.8608597,2.47159581 C47.4282082,2.29022781 48.0830355,2.29627762 48.6778159,2.5363791 L49.2433946,2.76438097 L48.665933,3.77797473 L48.838236,3.88283794 Z M16.5262996,18.9653701 L16.334908,19.552957 L12.0202532,18.1570915 L12.2111392,17.5695045 C12.3378066,17.1805528 12.5619395,16.8505865 12.8463723,16.5943522 L16.6152954,17.977362 C16.6578971,18.299766 16.6333727,18.635782 16.5262996,18.9653701 Z M47.2880145,5.39528821 L47.8400668,5.72928764 L44.9600907,9.06184577 L44.4077855,8.72809841 C44.3434405,8.68927885 44.2826351,8.64831666 44.224358,8.60558994 L46.1475025,5.01440282 C46.5458347,5.05876803 46.9384782,5.18404932 47.2880145,5.39528821 Z" id="Shape"></path>
                    <path d="M45.9374119,1.26808351 C45.9215152,1.25693888 45.906636,1.24668076 45.8932828,1.23756243 C45.9071447,1.24731398 45.9220239,1.25744545 45.9374119,1.26808351 Z" id="Shape"></path>
                </g>
                <g id="food-drink" transform="translate(173.303006, 83.323744)">
                    <g id="bottle" transform="translate(15.793305, 33.295760) rotate(6.000000) translate(-15.793305, -33.295760) translate(3.793305, 1.295760)">
                        <path d="M21.820003,7.34849373 C21.3893421,7.01303586 20.9813163,6.9845845 20.7479671,7.00722642 C18.730026,7.0188453 17.027337,7.65773465 15.6653645,8.48401566 L15.6653645,0.89375988 C15.6653645,0.400255466 15.26538,4.62963001e-14 14.7718771,4.62963001e-14 L8.60785695,4.62963001e-14 C8.11450303,4.62963001e-14 7.71436962,0.400404426 7.71436962,0.89375988 L7.71436962,8.48401566 C6.35239709,7.65773465 4.64970807,7.0188453 2.63161802,7.00722642 C2.39826891,6.98518034 1.99009412,7.01303586 1.55958214,7.34849373 C0.56423725,8.12383043 0.0804138598,10.1188514 0.0804138598,13.4470643 C0.0804138598,16.7754261 0.56423725,18.7700002 1.55958214,19.5456348 C1.92248691,19.8280629 2.26915999,19.8924137 2.50906134,19.8924137 C2.55388462,19.8924137 2.59483612,19.8903282 2.63161802,19.8869021 C3.63738692,19.8809437 4.56438003,19.7187263 5.4102147,19.455812 C4.45209846,20.9428794 3.43769251,22.8293086 2.58113598,25.1222496 C2.44294328,25.4916703 2.56356407,25.9083114 2.87777378,26.1469453 L3.4324805,26.5682041 C2.82237756,28.3768762 2.52380388,30.2075944 2.52380388,32.1440741 L2.52380388,59.4669095 C2.52380388,61.7489764 4.38002381,63.6057625 6.6613948,63.6057625 L16.7180415,63.6057625 C18.9995614,63.6057625 20.8556324,61.7489764 20.8556324,59.4669095 L20.8556324,32.1442231 C20.8556324,30.2075944 20.5570587,28.3767272 19.9468068,26.5683531 L20.5016625,26.1470943 C20.8157233,25.9084604 20.936493,25.4919683 20.7983003,25.1223986 C19.9415948,22.8294576 18.9271889,20.9430284 17.9692215,19.4559609 C18.8152051,19.7188753 19.7420493,19.8810927 20.7476693,19.8870511 C20.7843023,19.8904772 20.8254027,19.8925626 20.8700771,19.8925626 C21.1099784,19.8925626 21.4568004,19.8282119 21.8197052,19.5457838 C22.8150501,18.7701492 23.2987246,16.7754261 23.2987246,13.4472132 C23.2990224,10.1188514 22.8153479,8.12383043 21.820003,7.34849373 Z M9.50149319,8.12293667 L13.8785387,8.12293667 L13.8785387,9.81214284 C13.5612018,10.0951668 13.2787109,10.3750626 13.0315127,10.6384239 C12.8088855,10.5834576 12.5773233,10.5508354 12.3377198,10.5508354 L11.0426099,10.5508354 C10.8030064,10.5508354 10.5714443,10.5834576 10.348817,10.6384239 C10.1016188,10.3750626 9.81897902,10.0953158 9.50179102,9.81214284 L9.50179102,8.12293667 L9.50149319,8.12293667 Z M13.4459419,13.4470643 C13.4459419,14.058396 12.9485673,14.5554755 12.3375709,14.5554755 L11.042461,14.5554755 C10.4313157,14.5554755 9.9343878,14.0582471 9.9343878,13.4470643 C9.9343878,12.8357325 10.4314646,12.3383551 11.042461,12.3383551 L12.3375709,12.3383551 C12.9485673,12.3383551 13.4459419,12.8358815 13.4459419,13.4470643 Z M4.31092746,35.8010416 L19.0689555,35.8010416 L19.0689555,52.3504954 L4.31092746,52.3504954 L4.31092746,35.8010416 Z M19.0689555,59.4670584 C19.0689555,60.7637551 18.0146405,61.8183917 16.7183393,61.8183917 L6.66169263,61.8183917 C5.36568925,61.8183917 4.31107637,60.7637551 4.31107637,59.4670584 L4.31107637,54.1380151 L19.0691044,54.1380151 L19.0691044,59.4670584 L19.0689555,59.4670584 Z M19.0689555,34.0135218 L4.31092746,34.0135218 L4.31092746,32.1442231 C4.31092746,30.5880381 4.51776977,29.1551921 4.94560129,27.7172814 L5.47350339,28.1181327 C5.63060825,28.2371517 5.82062322,28.3000128 6.0137654,28.3000128 C6.08837159,28.3000128 6.16342452,28.2906284 6.23713723,28.2715615 C6.50160948,28.2031889 6.72051387,28.0175847 6.83085956,27.767332 C6.85900441,27.703726 9.39174317,21.9869399 11.6897926,18.2313609 C13.9873953,21.9860462 16.5208786,27.703726 16.5490234,27.767332 C16.659518,28.0175847 16.8782735,28.2031889 17.1428947,28.2715615 C17.2167563,28.2907773 17.2918092,28.3000128 17.3662665,28.3000128 C17.5594087,28.3000128 17.7495726,28.2371517 17.9066774,28.1178348 L18.4374089,27.714898 C18.8655383,29.1534046 19.0688066,30.5868465 19.0688066,32.1440741 L19.0688066,34.0135218 L19.0689555,34.0135218 Z" id="Shape"></path>
                        <path d="M9.71324969,16.8883377 C9.81421376,16.794344 10.2487464,16.3622111 10.348817,16.2555557 C10.4898391,16.2904124 10.634733,16.3149908 10.7826051,16.329142 C8.82705917,19.2699099 6.60867904,23.9499345 5.66113573,26.0164564 L4.49424127,25.1302934 C6.36431026,20.4593553 8.91402527,17.6845288 9.71324969,16.8883377 Z" id="Path"></path>
                        <path d="M18.8856417,25.1302934 L17.7187473,26.0161584 C16.7715018,23.9500835 14.5528238,19.2700589 12.597129,16.3292909 C12.74515,16.3149908 12.8900439,16.2904124 13.0312149,16.2555557 C13.1314344,16.362509 13.5606061,16.7897262 13.665442,16.887295 C14.4630283,17.6815496 17.0146792,20.4566741 18.8856417,25.1302934 Z" id="Path"></path>
                        <path d="M17.9519475,42.034272 C17.692985,40.336724 16.4546116,38.9841674 14.8707564,38.6686702 C13.7014793,38.4356968 12.5721113,38.8002018 11.6899415,39.6565728 C10.8077717,38.8004998 9.6785526,38.4359947 8.5091266,38.6686702 C6.92512247,38.9840185 5.68704686,40.3365751 5.42808445,42.034272 C5.22645414,43.3571855 5.3907069,46.7802859 11.2616632,49.9838192 C11.3976222,50.0580013 11.5373041,50.0931558 11.6887502,50.0931558 C11.8403452,50.0931558 11.9828564,50.0580013 12.1186665,49.9838192 C17.989325,46.7804348 18.1537267,43.3571855 17.9519475,42.034272 Z" id="Shape"></path>
                        <path d="M11.6900904,48.1735086 C8.57941427,46.3715397 6.90561467,44.1982136 7.1945089,42.3040385 C7.34044517,41.3474175 8.00907152,40.5909987 8.85818231,40.4219291 C9.65413061,40.2634357 10.3885772,40.6636912 10.9252653,41.550152 C11.1808026,41.9723046 11.7301484,42.1072624 12.1523212,41.851647 C12.2802388,41.7740389 12.3815007,41.6691711 12.4538732,41.5492583 L12.4549156,41.5500031 C12.9914547,40.6641381 13.7254545,40.2637336 14.5218496,40.4220781 C15.3708115,40.5911477 16.0394378,41.3475665 16.185523,42.3041874 C16.4744172,44.1983626 14.8006176,46.3716887 11.6900904,48.1735086 Z" id="Path"></path>
                        <path d="M2.62104509,18.0995313 C2.47495991,17.936867 1.97028848,17.1735961 1.88123758,14.3409731 L2.79795558,14.3409731 C3.2913095,14.3409731 3.69144291,13.9405687 3.69144291,13.4472132 C3.69144291,12.9535599 3.29116058,12.5534534 2.79795558,12.5534534 L1.88123758,12.5534534 C1.97028848,9.72053246 2.47481099,8.95726152 2.62104509,8.79489514 C5.44267808,8.8114297 7.55264841,10.355102 8.80457307,11.6121752 C8.39416456,12.1120849 8.14726423,12.7512722 8.14726423,13.4472132 C8.14726423,14.1431543 8.39416456,14.7821926 8.80457307,15.2821023 C8.78685224,15.2998285 8.58432845,15.487965 8.42662793,15.6446709 C7.14730299,16.8172838 5.17597211,18.0843374 2.62104509,18.0995313 Z" id="Path"></path>
                        <path d="M20.5819274,14.3408242 L21.4983476,14.3408242 C21.4092967,17.1735961 20.9049231,17.936867 20.758689,18.0993824 C18.2045065,18.0841885 16.2333246,16.8178797 14.9542975,15.6454157 C14.7957035,15.487816 14.5930307,15.2996795 14.5754588,15.2821023 C14.9860163,14.7821926 15.2329166,14.1430053 15.2329166,13.4470643 C15.2329166,12.7509743 14.9860163,12.111787 14.5754588,11.6118773 C15.8272346,10.3548041 17.9372049,8.81128074 20.758689,8.79474618 C20.9047742,8.95726152 21.4092967,9.72053246 21.4983476,12.5533044 L20.5819274,12.5533044 C20.0885735,12.5533044 19.6884401,12.9534109 19.6884401,13.4470643 C19.6884401,13.9405687 20.0885735,14.3408242 20.5819274,14.3408242 Z" id="Path"></path>
                        <polygon id="Path" points="9.50149319 1.78751976 13.8785387 1.78751976 13.8785387 6.33541691 9.50149319 6.33541691"></polygon>
                    </g>
                    <g id="bottle" transform="translate(38.086740, 33.250756) rotate(-5.000000) translate(-38.086740, -33.250756) translate(26.086740, 1.250756)">
                        <path d="M21.820003,7.34849373 C21.3893421,7.01303586 20.9813163,6.9845845 20.7479671,7.00722642 C18.730026,7.0188453 17.027337,7.65773465 15.6653645,8.48401566 L15.6653645,0.89375988 C15.6653645,0.400255466 15.26538,4.4408921e-14 14.7718771,4.4408921e-14 L8.60785695,4.4408921e-14 C8.11450303,4.4408921e-14 7.71436962,0.400404426 7.71436962,0.89375988 L7.71436962,8.48401566 C6.35239709,7.65773465 4.64970807,7.0188453 2.63161802,7.00722642 C2.39826891,6.98518034 1.99009412,7.01303586 1.55958214,7.34849373 C0.56423725,8.12383043 0.0804138598,10.1188514 0.0804138598,13.4470643 C0.0804138598,16.7754261 0.56423725,18.7700002 1.55958214,19.5456348 C1.92248691,19.8280629 2.26915999,19.8924137 2.50906134,19.8924137 C2.55388462,19.8924137 2.59483612,19.8903282 2.63161802,19.8869021 C3.63738692,19.8809437 4.56438003,19.7187263 5.4102147,19.455812 C4.45209846,20.9428794 3.43769251,22.8293086 2.58113598,25.1222496 C2.44294328,25.4916703 2.56356407,25.9083114 2.87777378,26.1469453 L3.4324805,26.5682041 C2.82237756,28.3768762 2.52380388,30.2075944 2.52380388,32.1440741 L2.52380388,59.4669095 C2.52380388,61.7489764 4.38002381,63.6057625 6.6613948,63.6057625 L16.7180415,63.6057625 C18.9995614,63.6057625 20.8556324,61.7489764 20.8556324,59.4669095 L20.8556324,32.1442231 C20.8556324,30.2075944 20.5570587,28.3767272 19.9468068,26.5683531 L20.5016625,26.1470943 C20.8157233,25.9084604 20.936493,25.4919683 20.7983003,25.1223986 C19.9415948,22.8294576 18.9271889,20.9430284 17.9692215,19.4559609 C18.8152051,19.7188753 19.7420493,19.8810927 20.7476693,19.8870511 C20.7843023,19.8904772 20.8254027,19.8925626 20.8700771,19.8925626 C21.1099784,19.8925626 21.4568004,19.8282119 21.8197052,19.5457838 C22.8150501,18.7701492 23.2987246,16.7754261 23.2987246,13.4472132 C23.2990224,10.1188514 22.8153479,8.12383043 21.820003,7.34849373 Z M9.50149319,8.12293667 L13.8785387,8.12293667 L13.8785387,9.81214284 C13.5612018,10.0951668 13.2787109,10.3750626 13.0315127,10.6384239 C12.8088855,10.5834576 12.5773233,10.5508354 12.3377198,10.5508354 L11.0426099,10.5508354 C10.8030064,10.5508354 10.5714443,10.5834576 10.348817,10.6384239 C10.1016188,10.3750626 9.81897902,10.0953158 9.50179102,9.81214284 L9.50179102,8.12293667 L9.50149319,8.12293667 Z M13.4459419,13.4470643 C13.4459419,14.058396 12.9485673,14.5554755 12.3375709,14.5554755 L11.042461,14.5554755 C10.4313157,14.5554755 9.9343878,14.0582471 9.9343878,13.4470643 C9.9343878,12.8357325 10.4314646,12.3383551 11.042461,12.3383551 L12.3375709,12.3383551 C12.9485673,12.3383551 13.4459419,12.8358815 13.4459419,13.4470643 Z M4.31092746,35.8010416 L19.0689555,35.8010416 L19.0689555,52.3504954 L4.31092746,52.3504954 L4.31092746,35.8010416 Z M19.0689555,59.4670584 C19.0689555,60.7637551 18.0146405,61.8183917 16.7183393,61.8183917 L6.66169263,61.8183917 C5.36568925,61.8183917 4.31107637,60.7637551 4.31107637,59.4670584 L4.31107637,54.1380151 L19.0691044,54.1380151 L19.0691044,59.4670584 L19.0689555,59.4670584 Z M19.0689555,34.0135218 L4.31092746,34.0135218 L4.31092746,32.1442231 C4.31092746,30.5880381 4.51776977,29.1551921 4.94560129,27.7172814 L5.47350339,28.1181327 C5.63060825,28.2371517 5.82062322,28.3000128 6.0137654,28.3000128 C6.08837159,28.3000128 6.16342452,28.2906284 6.23713723,28.2715615 C6.50160948,28.2031889 6.72051387,28.0175847 6.83085956,27.767332 C6.85900441,27.703726 9.39174317,21.9869399 11.6897926,18.2313609 C13.9873953,21.9860462 16.5208786,27.703726 16.5490234,27.767332 C16.659518,28.0175847 16.8782735,28.2031889 17.1428947,28.2715615 C17.2167563,28.2907773 17.2918092,28.3000128 17.3662665,28.3000128 C17.5594087,28.3000128 17.7495726,28.2371517 17.9066774,28.1178348 L18.4374089,27.714898 C18.8655383,29.1534046 19.0688066,30.5868465 19.0688066,32.1440741 L19.0688066,34.0135218 L19.0689555,34.0135218 Z" id="Shape"></path>
                        <path d="M9.71324969,16.8883377 C9.81421376,16.794344 10.2487464,16.3622111 10.348817,16.2555557 C10.4898391,16.2904124 10.634733,16.3149908 10.7826051,16.329142 C8.82705917,19.2699099 6.60867904,23.9499345 5.66113573,26.0164564 L4.49424127,25.1302934 C6.36431026,20.4593553 8.91402527,17.6845288 9.71324969,16.8883377 Z" id="Path"></path>
                        <path d="M18.8856417,25.1302934 L17.7187473,26.0161584 C16.7715018,23.9500835 14.5528238,19.2700589 12.597129,16.3292909 C12.74515,16.3149908 12.8900439,16.2904124 13.0312149,16.2555557 C13.1314344,16.362509 13.5606061,16.7897262 13.665442,16.887295 C14.4630283,17.6815496 17.0146792,20.4566741 18.8856417,25.1302934 Z" id="Path"></path>
                        <path d="M17.9519475,42.034272 C17.692985,40.336724 16.4546116,38.9841674 14.8707564,38.6686702 C13.7014793,38.4356968 12.5721113,38.8002018 11.6899415,39.6565728 C10.8077717,38.8004998 9.6785526,38.4359947 8.5091266,38.6686702 C6.92512247,38.9840185 5.68704686,40.3365751 5.42808445,42.034272 C5.22645414,43.3571855 5.3907069,46.7802859 11.2616632,49.9838192 C11.3976222,50.0580013 11.5373041,50.0931558 11.6887502,50.0931558 C11.8403452,50.0931558 11.9828564,50.0580013 12.1186665,49.9838192 C17.989325,46.7804348 18.1537267,43.3571855 17.9519475,42.034272 Z" id="Shape"></path>
                        <path d="M11.6900904,48.1735086 C8.57941427,46.3715397 6.90561467,44.1982136 7.1945089,42.3040385 C7.34044517,41.3474175 8.00907152,40.5909987 8.85818231,40.4219291 C9.65413061,40.2634357 10.3885772,40.6636912 10.9252653,41.550152 C11.1808026,41.9723046 11.7301484,42.1072624 12.1523212,41.851647 C12.2802388,41.7740389 12.3815007,41.6691711 12.4538732,41.5492583 L12.4549156,41.5500031 C12.9914547,40.6641381 13.7254545,40.2637336 14.5218496,40.4220781 C15.3708115,40.5911477 16.0394378,41.3475665 16.185523,42.3041874 C16.4744172,44.1983626 14.8006176,46.3716887 11.6900904,48.1735086 Z" id="Path"></path>
                        <path d="M2.62104509,18.0995313 C2.47495991,17.936867 1.97028848,17.1735961 1.88123758,14.3409731 L2.79795558,14.3409731 C3.2913095,14.3409731 3.69144291,13.9405687 3.69144291,13.4472132 C3.69144291,12.9535599 3.29116058,12.5534534 2.79795558,12.5534534 L1.88123758,12.5534534 C1.97028848,9.72053246 2.47481099,8.95726152 2.62104509,8.79489514 C5.44267808,8.8114297 7.55264841,10.355102 8.80457307,11.6121752 C8.39416456,12.1120849 8.14726423,12.7512722 8.14726423,13.4472132 C8.14726423,14.1431543 8.39416456,14.7821926 8.80457307,15.2821023 C8.78685224,15.2998285 8.58432845,15.487965 8.42662793,15.6446709 C7.14730299,16.8172838 5.17597211,18.0843374 2.62104509,18.0995313 Z" id="Path"></path>
                        <path d="M20.5819274,14.3408242 L21.4983476,14.3408242 C21.4092967,17.1735961 20.9049231,17.936867 20.758689,18.0993824 C18.2045065,18.0841885 16.2333246,16.8178797 14.9542975,15.6454157 C14.7957035,15.487816 14.5930307,15.2996795 14.5754588,15.2821023 C14.9860163,14.7821926 15.2329166,14.1430053 15.2329166,13.4470643 C15.2329166,12.7509743 14.9860163,12.111787 14.5754588,11.6118773 C15.8272346,10.3548041 17.9372049,8.81128074 20.758689,8.79474618 C20.9047742,8.95726152 21.4092967,9.72053246 21.4983476,12.5533044 L20.5819274,12.5533044 C20.0885735,12.5533044 19.6884401,12.9534109 19.6884401,13.4470643 C19.6884401,13.9405687 20.0885735,14.3408242 20.5819274,14.3408242 Z" id="Path"></path>
                        <polygon id="Path" points="9.50149319 1.78751976 13.8785387 1.78751976 13.8785387 6.33541691 9.50149319 6.33541691"></polygon>
                    </g>
                </g>
                <g id="icon" transform="translate(59.176368, 29.452414) scale(-1, 1) translate(-59.176368, -29.452414) translate(31.676368, 4.452414)">
                    <ellipse id="Oval" cx="28.3287412" cy="6.63000882" rx="6.56086054" ry="6.55692262"></ellipse>
                    <polygon id="Shape" points="44.7167577 37.6910967 38.922235 16.059328 44.0940605 16.059328 50.4711134 23.100474 52.6620691 18.2825665 46.9975433 10.8850435 37.2033505 10.8850435 26.2855738 15.3162487 20.584483 15.3162487 15.6664299 9.53818492 13.5639944 13.402263 17.4552792 21.0211172 27.6751547 21.0211172 29.8813913 30.5653017 22.1102823 32.6984369 18.5776624 46.4423506 22.0999131 49.5540772 26.7598279 38.4389758 37.0003326 35.6281025 38.0170592 40.2701668 52.7777675 49.4454296 54.2412424 45.0862198"></polygon>
                    <ellipse id="Oval" cx="6.88557997" cy="17.4733823" rx="3.05967563" ry="3.05783918"></ellipse>
                    <polygon id="Shape" points="14.5281109 31.9588482 11.2692377 19.9827478 5.93270582 21.5243211 3.27404503 21.5243211 0.9803798 18.8296221 0 20.6315786 1.81460857 24.1846586 6.58083488 24.1846586 7.60956786 28.635717 3.98548074 29.630562 2.33808903 36.0401123 3.98078732 37.491146 6.15384248 32.3075893 10.9295648 30.9967284 11.4038189 33.1614979 18.2874342 37.440422 18.9700544 35.4075349"></polygon>
                </g>
                <g id="lots-of-coins" transform="translate(144.689074, 0.000000)">
                    <path d="M27.9352952,11.4427234 L27.9352952,15.5076976 C27.9336662,17.6123079 21.6805715,19.3184073 13.9678512,19.3184073 C6.25350193,19.3184073 0.00162904642,17.6123079 0,15.5085126 L0,11.4419084 C0,13.5469262 6.25350193,15.253433 13.967444,15.253433 C21.6822005,15.253433 27.9352952,13.5473336 27.9352952,11.4419084 L27.9352952,11.4427234 Z M27.9352952,10.6734099 C27.9352952,12.7784276 21.6822005,14.4849345 13.9678512,14.4849345 C6.25350193,14.4849345 0,12.7784276 0,10.6734099 C0,8.56798461 6.25350193,6.86188524 13.967444,6.86188524 C21.6822005,6.86188524 27.9352952,8.56798461 27.9352952,10.6734099 L27.9352952,10.6734099 Z M20.7104744,10.456633 L8.43968222,9.61845612 L8.02264634,10.3690257 L8.47715029,10.4321844 C9.10026054,10.5201991 9.89238436,10.7125275 9.5250344,11.3681554 L9.41018662,11.571893 L11.6786338,11.7267337 L11.792667,11.522181 C11.9502772,11.2385782 11.9991486,10.9965378 11.9392812,10.7887254 L20.2083208,11.3530788 L20.7092526,10.456633 L20.7104744,10.456633 Z M13.9670367,20.3574695 C6.25390919,20.3574695 0,18.6501477 0,16.5451299 L0,20.6105117 C0.00162904642,22.715122 6.25350193,24.4216288 13.967444,24.4216288 C21.6801642,24.4216288 27.9336662,22.715122 27.9352952,20.6105117 L27.9352952,16.5451299 C27.9352952,18.6505552 21.6809788,20.3566546 13.967444,20.3566546 L13.9670367,20.3574695 Z M13.9670367,25.4892143 C6.25390919,25.4892143 0,23.7827075 0,21.6776897 L0,25.7434789 C0.00162904642,27.8468668 6.25350193,29.5533737 13.967444,29.5533737 C21.6801642,29.5533737 27.9336662,27.8468668 27.9352952,25.7434789 L27.9352952,21.6776897 C27.9352952,23.7827075 21.6809788,25.4892143 13.967444,25.4892143 L13.9670367,25.4892143 Z M13.9670367,30.5329445 C6.25390919,30.5329445 0,28.8264376 0,26.7210124 L0,30.7868016 C0.00162904642,32.8901895 6.25350193,34.5975113 13.967444,34.5975113 C21.6801642,34.5975113 27.9336662,32.8901895 27.9352952,30.7868016 L27.9352952,26.7210124 C27.9352952,28.8288825 21.6809788,30.5329445 13.967444,30.5329445 L13.9670367,30.5329445 Z M13.9670367,35.5163682 C6.25390919,35.5163682 0,33.8090464 0,31.7040287 L0,35.7685955 C0.00162904642,37.8740207 6.25350193,39.5801201 13.967444,39.5801201 C21.6801642,39.5801201 27.9336662,37.8740207 27.9352952,35.769003 L27.9352952,31.7048436 C27.9352952,33.8098614 21.6809788,35.5171832 13.967444,35.5171832 L13.9670367,35.5163682 Z M29.8657152,11.7149169 L29.9675306,11.7149169 L29.9675306,11.8184156 C32.1809974,12.2210013 34.8412302,12.457337 37.7034648,12.457337 C45.4153705,12.457337 51.6676507,10.7508302 51.6709088,8.64662736 L51.6709088,4.58124559 C51.6709088,6.68667083 45.4169996,8.39317768 37.7034648,8.39317768 C29.98993,8.39317768 23.7356135,6.68585588 23.7356135,4.58043064 L23.7356135,6.11050065 C27.0873765,6.91730189 29.9679379,8.3597647 29.9679379,10.9451959 C29.9679379,11.2157596 29.9272117,11.4688018 29.8661225,11.7153244 L29.8657152,11.7149169 Z M23.7352063,3.81152461 C23.7352063,1.70609938 29.98993,0 37.7042793,0 C45.4178141,0 51.6717233,1.70609938 51.6717233,3.81111714 C51.6717233,5.91694985 45.4178141,7.6234567 37.7042793,7.6234567 C29.9907445,7.6234567 23.7364281,5.9161349 23.7364281,3.81070966 L23.7352063,3.81152461 Z M30.9583981,4.02830151 L43.2283757,4.86607087 L43.6466334,4.11631619 L43.1913149,4.05397246 C42.5661683,3.9655503 41.7781171,3.77362941 42.1418017,3.11800153 L42.2582786,2.91263395 L39.9906459,2.75779331 L39.8782417,2.96316089 C39.7185952,3.24676375 39.6705383,3.48961907 39.7295913,3.69661656 L31.4609589,3.13104075 L30.9592126,4.02748656 L30.9583981,4.02830151 Z M37.7034648,17.5597436 C45.4153705,17.5597436 51.6676507,15.8536442 51.6709088,13.7498489 L51.6709088,9.68405965 C51.6709088,11.7886699 45.4169996,13.4955843 37.7034648,13.4955843 C34.8412302,13.4955843 32.1809974,13.2592486 29.9675306,12.855033 L29.9675306,15.7794837 C29.9659016,16.1486564 29.9035905,16.4925656 29.7924081,16.8165085 L29.9675306,16.8165085 L29.9675306,16.9195998 C32.1797756,17.3242228 34.8412302,17.5593361 37.7034648,17.5593361 L37.7034648,17.5597436 Z M29.9675306,21.9494758 L29.9675306,22.053382 C32.1809974,22.4559677 34.8412302,22.6923034 37.7034648,22.6923034 C45.4153705,22.6923034 51.6676507,20.9857965 51.6709088,18.8815937 L51.6709088,14.8166194 C51.6709088,16.9224521 45.4169996,18.6285515 37.7034648,18.6285515 C34.8412302,18.6285515 32.1809974,18.3930307 29.9675306,17.9896301 L29.9675306,20.8818903 C29.9659016,21.2632873 29.8970744,21.6169759 29.7801903,21.9494758 L29.9675306,21.9494758 Z M51.6705015,23.5394447 L51.6705015,19.8599421 C51.6705015,21.1320802 49.3808768,22.2546748 45.8731326,22.9469755 C47.4125814,23.0162463 49.5490758,23.1751617 51.6709088,23.5390372 L51.6705015,23.5394447 Z M29.9675306,25.5348516 C31.3237118,24.6111049 33.3502455,24.0096712 35.4427556,23.6189024 C33.4451374,23.5300727 31.5868027,23.3275575 29.9675306,23.0321378 L29.9675306,25.5348516 L29.9675306,25.5348516 Z M43.7468197,32.8135841 C36.0320632,32.8135841 29.7789685,31.1062623 29.7789685,28.9996146 L29.7789685,33.0662188 C29.7830411,35.1708291 36.0336922,36.8769285 43.7468197,36.8769285 C51.4615763,36.8769285 57.7126346,35.1708291 57.7142637,33.0658114 L57.7142637,28.9992072 C57.7154855,31.1058548 51.4615763,32.8131766 43.7468197,32.8131766 L43.7468197,32.8135841 Z M43.7468197,24.4216288 C51.4615763,24.4216288 57.7142637,26.1277282 57.7142637,28.2315236 C57.7142637,30.3369488 51.4615763,32.0438631 43.7468197,32.0438631 C36.0320632,32.0438631 29.7789685,30.3373563 29.7789685,28.2323385 C29.7789685,26.1281357 36.0336922,24.4224438 43.7468197,24.4224438 L43.7468197,24.4216288 Z M45.7749825,28.1153931 L37.5059429,27.5506322 L37.0058257,28.4487079 L49.2766178,29.2864773 L49.6936537,28.5350927 L49.2383352,28.4739714 C48.6152249,28.3843268 47.8251374,28.1928134 48.1908583,27.5359631 L48.3048916,27.3322254 L46.0364445,27.1781997 L45.9248548,27.3819374 C45.7635792,27.6655403 45.7143005,27.9088031 45.774168,28.1153931 L45.7749825,28.1153931 Z M43.7468197,37.9151757 C36.0320632,37.9151757 29.7789685,36.2078539 29.7789685,34.1028362 L29.7789685,38.1694404 C29.7830411,40.2744581 36.0336922,41.9813725 43.7468197,41.9813725 C51.4615763,41.9813725 57.7126346,40.2740507 57.7142637,38.1690329 L57.7142637,34.1056885 C57.7154855,36.2082614 51.4615763,37.9155832 43.7468197,37.9155832 L43.7468197,37.9151757 Z M43.7468197,43.0465131 C36.0320632,43.0465131 29.7789685,41.3404137 29.7789685,39.2353959 L29.7789685,43.3007777 C29.7830411,45.4041656 36.0336922,47.1114874 43.7468197,47.1114874 C51.4615763,47.1114874 57.7126346,45.4041656 57.7142637,43.3003702 L57.7142637,39.2358034 C57.7154855,41.3424511 51.4615763,43.0469206 43.7468197,43.0469206 L43.7468197,43.0465131 Z" id="icons"></path>
                    <path d="M43.7468197,48.0930955 C36.0320632,48.0930955 29.7789685,46.3857737 29.7789685,44.280756 L29.7789685,48.3465452 C29.7830411,50.4503406 36.0336922,52.1564399 43.7468197,52.1564399 C51.4615763,52.1564399 57.7126346,50.4503406 57.7142637,48.3465452 L57.7142637,44.280756 C57.7154855,46.3853663 51.4615763,48.0930955 43.7468197,48.0930955 Z" id="£40-89k-path"></path>
                    <path d="M13.9670367,40.4891977 C6.25390919,40.4891977 0,38.7835058 0,36.6768581 L0,40.7434623 C0.00162904642,42.8468501 6.25350193,44.553357 13.967444,44.553357 C21.6801642,44.553357 27.9336662,42.8468501 27.9352952,40.7434623 L27.9352952,36.6768581 C27.9352952,38.7835058 21.6809788,40.4891977 13.967444,40.4891977 L13.9670367,40.4891977 Z" id="£40-89k-path"></path>
                </g>
            </g>
        </g>
    </g>
</svg>