<?xml version="1.0" encoding="UTF-8" standalone="no"?><!DOCTYPE svg PUBLIC "-//W3C//DTD SVG 1.1//EN" "http://www.w3.org/Graphics/SVG/1.1/DTD/svg11.dtd"><svg width="100%" height="100%" viewBox="0 0 320 100" version="1.1" xmlns="http://www.w3.org/2000/svg" xmlns:xlink="http://www.w3.org/1999/xlink" xml:space="preserve" style="fill-rule:evenodd;clip-rule:evenodd;stroke-linejoin:round;stroke-miterlimit:1.41421;"><path d="M88.863,67.045c0.356,0.269 0.561,0.573 0.617,0.912c0.055,0.339 0.002,0.631 -0.158,0.875c-0.161,0.245 -0.406,0.412 -0.737,0.503c-0.331,0.091 -0.695,0.027 -1.092,-0.192c-0.527,-0.336 -0.917,-0.744 -1.169,-1.224c-0.252,-0.481 -0.379,-0.974 -0.38,-1.478c-0.002,-0.505 0.134,-0.999 0.409,-1.484c0.276,-0.485 0.686,-0.895 1.233,-1.231c0.346,-0.217 0.775,-0.407 1.287,-0.57c0.513,-0.163 1.029,-0.324 1.551,-0.484c0.522,-0.159 1.017,-0.335 1.485,-0.526c0.468,-0.191 0.842,-0.435 1.121,-0.732c0.279,-0.297 0.429,-0.655 0.449,-1.075c0.019,-0.419 -0.169,-0.936 -0.567,-1.549c-0.05,-0.042 -0.1,-0.083 -0.149,-0.124c-0.05,-0.041 -0.109,-0.086 -0.178,-0.134c-0.834,-0.279 -1.682,-0.323 -2.545,-0.131c-0.862,0.192 -1.667,0.516 -2.413,0.972c-0.392,0.22 -0.752,0.289 -1.081,0.205c-0.329,-0.083 -0.577,-0.25 -0.742,-0.5c-0.166,-0.251 -0.222,-0.546 -0.167,-0.886c0.055,-0.34 0.267,-0.647 0.635,-0.92c0.573,-0.348 1.21,-0.649 1.91,-0.904c0.701,-0.254 1.41,-0.418 2.128,-0.49c0.718,-0.073 1.417,-0.054 2.098,0.056c0.68,0.109 1.282,0.337 1.805,0.682c0.524,0.345 0.947,0.821 1.271,1.428c0.323,0.607 0.492,1.373 0.506,2.298c0.011,0.596 -0.095,1.124 -0.317,1.585c-0.223,0.462 -0.514,0.875 -0.874,1.239c-0.36,0.365 -0.774,0.67 -1.241,0.916c-0.468,0.246 -0.964,0.454 -1.49,0.623c-0.177,0.062 -0.475,0.139 -0.893,0.229c-0.418,0.09 -0.833,0.214 -1.245,0.372c-0.411,0.159 -0.765,0.35 -1.06,0.576c-0.295,0.225 -0.431,0.506 -0.409,0.843c0.024,0.053 0.045,0.083 0.064,0.091c0.042,0.06 0.097,0.103 0.164,0.129c0.066,0.025 0.125,0.059 0.174,0.1Zm-4.412,4.271c0.17,-0.438 0.466,-0.75 0.888,-0.937c0.423,-0.187 0.853,-0.195 1.292,-0.026c0.438,0.17 0.755,0.468 0.951,0.894c0.197,0.426 0.21,0.859 0.04,1.297c-0.169,0.438 -0.472,0.753 -0.908,0.946c-0.436,0.193 -0.873,0.204 -1.311,0.035c-0.438,-0.17 -0.748,-0.471 -0.932,-0.903c-0.183,-0.432 -0.19,-0.867 -0.02,-1.306Z" style="fill:#fff;fill-opacity:0.184314;fill-rule:nonzero;"/><path d="M47.487,78.346c0.542,-0.153 1.005,-0.128 1.388,0.075c0.384,0.203 0.638,0.479 0.762,0.827c0.124,0.348 0.105,0.724 -0.055,1.126c-0.161,0.403 -0.503,0.721 -1.027,0.953c-0.74,0.276 -1.449,0.357 -2.125,0.244c-0.677,-0.113 -1.27,-0.361 -1.78,-0.744c-0.509,-0.383 -0.903,-0.898 -1.182,-1.545c-0.278,-0.647 -0.379,-1.374 -0.301,-2.181c0.047,-0.514 0.183,-1.091 0.409,-1.732c0.227,-0.64 0.458,-1.284 0.696,-1.931c0.237,-0.647 0.438,-1.28 0.602,-1.897c0.165,-0.618 0.204,-1.18 0.118,-1.688c-0.087,-0.508 -0.333,-0.932 -0.741,-1.272c-0.407,-0.34 -1.072,-0.544 -1.993,-0.612c-0.08,0.019 -0.159,0.038 -0.239,0.056c-0.079,0.019 -0.169,0.045 -0.271,0.077c-0.917,0.627 -1.608,1.449 -2.073,2.464c-0.464,1.016 -0.752,2.073 -0.861,3.172c-0.077,0.564 -0.283,0.979 -0.618,1.247c-0.335,0.268 -0.692,0.39 -1.071,0.366c-0.379,-0.024 -0.719,-0.193 -1.019,-0.508c-0.301,-0.315 -0.449,-0.762 -0.443,-1.342c0.086,-0.843 0.269,-1.714 0.547,-2.614c0.278,-0.9 0.654,-1.739 1.129,-2.518c0.475,-0.779 1.027,-1.469 1.656,-2.07c0.63,-0.602 1.318,-1.035 2.065,-1.299c0.747,-0.264 1.55,-0.328 2.408,-0.191c0.859,0.137 1.759,0.552 2.703,1.243c0.607,0.444 1.059,0.954 1.354,1.53c0.296,0.576 0.489,1.184 0.582,1.825c0.092,0.641 0.084,1.29 -0.024,1.949c-0.109,0.659 -0.279,1.317 -0.509,1.976c-0.072,0.226 -0.223,0.585 -0.451,1.075c-0.228,0.49 -0.42,1.002 -0.574,1.538c-0.155,0.535 -0.231,1.038 -0.229,1.507c0.001,0.469 0.181,0.821 0.538,1.055c0.071,0.017 0.117,0.019 0.139,0.005c0.093,0.003 0.178,-0.019 0.255,-0.066c0.077,-0.048 0.155,-0.081 0.235,-0.1Zm0.937,7.704c-0.312,-0.505 -0.401,-1.041 -0.267,-1.61c0.135,-0.568 0.454,-1.008 0.959,-1.32c0.505,-0.313 1.047,-0.405 1.627,-0.277c0.579,0.127 1.025,0.443 1.337,0.948c0.312,0.505 0.399,1.051 0.26,1.637c-0.138,0.586 -0.46,1.035 -0.965,1.347c-0.505,0.313 -1.045,0.396 -1.62,0.251c-0.575,-0.145 -1.019,-0.471 -1.331,-0.976Z" style="fill:#fff;fill-opacity:0.184314;fill-rule:nonzero;"/><path d="M140.468,81.243c0.424,0.372 0.655,0.774 0.694,1.206c0.038,0.432 -0.055,0.795 -0.279,1.088c-0.225,0.294 -0.549,0.483 -0.975,0.568c-0.425,0.084 -0.878,-0.03 -1.358,-0.342c-0.634,-0.471 -1.088,-1.021 -1.362,-1.65c-0.274,-0.629 -0.389,-1.261 -0.346,-1.897c0.044,-0.636 0.261,-1.247 0.652,-1.833c0.391,-0.586 0.946,-1.066 1.665,-1.44c0.457,-0.241 1.015,-0.442 1.676,-0.601c0.66,-0.159 1.326,-0.315 1.998,-0.469c0.672,-0.153 1.312,-0.329 1.919,-0.527c0.608,-0.199 1.101,-0.472 1.48,-0.822c0.379,-0.349 0.6,-0.787 0.664,-1.313c0.063,-0.527 -0.128,-1.195 -0.573,-2.005c-0.059,-0.057 -0.118,-0.113 -0.177,-0.169c-0.059,-0.057 -0.13,-0.119 -0.212,-0.186c-1.026,-0.428 -2.091,-0.56 -3.196,-0.396c-1.105,0.163 -2.148,0.498 -3.13,1.005c-0.514,0.242 -0.974,0.296 -1.382,0.161c-0.407,-0.136 -0.703,-0.369 -0.89,-0.699c-0.186,-0.331 -0.229,-0.708 -0.129,-1.132c0.1,-0.424 0.395,-0.791 0.885,-1.102c0.753,-0.386 1.583,-0.708 2.489,-0.965c0.907,-0.257 1.816,-0.398 2.727,-0.425c0.912,-0.026 1.791,0.061 2.639,0.262c0.847,0.2 1.585,0.542 2.213,1.024c0.629,0.483 1.119,1.121 1.472,1.916c0.353,0.794 0.496,1.775 0.429,2.943c-0.04,0.751 -0.222,1.408 -0.544,1.969c-0.323,0.562 -0.727,1.056 -1.214,1.482c-0.487,0.427 -1.037,0.774 -1.648,1.042c-0.612,0.267 -1.257,0.484 -1.934,0.649c-0.23,0.063 -0.612,0.132 -1.147,0.207c-0.535,0.076 -1.07,0.195 -1.603,0.357c-0.533,0.162 -0.996,0.371 -1.389,0.628c-0.392,0.257 -0.59,0.599 -0.592,1.027c0.025,0.068 0.049,0.108 0.072,0.119c0.048,0.08 0.113,0.139 0.195,0.178c0.081,0.038 0.152,0.086 0.211,0.142Zm-5.951,4.983c0.254,-0.537 0.656,-0.904 1.205,-1.101c0.55,-0.197 1.094,-0.169 1.63,0.085c0.537,0.253 0.91,0.658 1.119,1.213c0.208,0.555 0.186,1.101 -0.068,1.638c-0.253,0.537 -0.664,0.907 -1.231,1.11c-0.567,0.203 -1.118,0.178 -1.655,-0.076c-0.537,-0.253 -0.901,-0.661 -1.093,-1.222c-0.191,-0.562 -0.16,-1.111 0.093,-1.647Z" style="fill:#fff;fill-opacity:0.184314;fill-rule:nonzero;"/><path d="M94.477,101.911c0.254,0.342 0.36,0.677 0.318,1.002c-0.041,0.325 -0.168,0.579 -0.381,0.759c-0.213,0.181 -0.484,0.268 -0.812,0.262c-0.327,-0.006 -0.644,-0.163 -0.948,-0.471c-0.392,-0.45 -0.639,-0.93 -0.74,-1.439c-0.101,-0.508 -0.084,-0.994 0.051,-1.457c0.134,-0.463 0.393,-0.879 0.777,-1.249c0.383,-0.37 0.871,-0.635 1.462,-0.795c0.376,-0.105 0.821,-0.163 1.334,-0.174c0.514,-0.011 1.031,-0.019 1.552,-0.024c0.522,-0.005 1.023,-0.032 1.503,-0.08c0.481,-0.049 0.89,-0.172 1.226,-0.368c0.336,-0.197 0.57,-0.485 0.702,-0.864c0.132,-0.379 0.098,-0.903 -0.1,-1.573c-0.035,-0.052 -0.069,-0.103 -0.104,-0.154c-0.034,-0.051 -0.076,-0.108 -0.126,-0.171c-0.689,-0.481 -1.455,-0.751 -2.297,-0.808c-0.843,-0.058 -1.667,0.021 -2.474,0.238c-0.419,0.096 -0.768,0.061 -1.047,-0.104c-0.279,-0.166 -0.461,-0.386 -0.545,-0.66c-0.084,-0.275 -0.055,-0.56 0.087,-0.857c0.142,-0.297 0.419,-0.521 0.831,-0.672c0.619,-0.164 1.284,-0.267 1.995,-0.311c0.711,-0.044 1.405,-0.002 2.083,0.126c0.678,0.128 1.313,0.334 1.907,0.619c0.594,0.284 1.084,0.655 1.47,1.113c0.387,0.458 0.646,1.009 0.779,1.653c0.132,0.643 0.079,1.391 -0.158,2.243c-0.151,0.549 -0.391,1.004 -0.72,1.367c-0.328,0.363 -0.707,0.663 -1.136,0.899c-0.428,0.237 -0.89,0.405 -1.385,0.504c-0.495,0.099 -1.006,0.155 -1.533,0.168c-0.18,0.009 -0.474,-0.002 -0.881,-0.032c-0.408,-0.031 -0.821,-0.029 -1.242,0.005c-0.42,0.033 -0.795,0.113 -1.127,0.24c-0.331,0.127 -0.532,0.348 -0.603,0.663c0.008,0.055 0.019,0.088 0.034,0.1c0.023,0.066 0.061,0.121 0.115,0.162c0.054,0.042 0.099,0.088 0.133,0.14Zm-5.199,2.721c0.274,-0.356 0.63,-0.562 1.068,-0.619c0.438,-0.057 0.835,0.052 1.19,0.325c0.356,0.274 0.566,0.633 0.631,1.077c0.064,0.444 -0.04,0.844 -0.314,1.199c-0.274,0.356 -0.637,0.563 -1.089,0.622c-0.451,0.059 -0.855,-0.049 -1.21,-0.323c-0.356,-0.274 -0.559,-0.634 -0.61,-1.079c-0.051,-0.446 0.06,-0.847 0.334,-1.202Z" style="fill:#fff;fill-opacity:0.184314;fill-rule:nonzero;"/><path d="M168.995,117.147c0.703,0.201 1.196,0.544 1.48,1.029c0.285,0.485 0.377,0.961 0.276,1.43c-0.1,0.468 -0.376,0.869 -0.827,1.204c-0.452,0.334 -1.046,0.451 -1.781,0.351c-1.004,-0.201 -1.84,-0.594 -2.509,-1.179c-0.669,-0.585 -1.154,-1.263 -1.455,-2.032c-0.301,-0.769 -0.384,-1.605 -0.251,-2.508c0.134,-0.903 0.519,-1.773 1.154,-2.609c0.402,-0.535 0.945,-1.079 1.631,-1.63c0.685,-0.552 1.379,-1.104 2.082,-1.656c0.702,-0.552 1.354,-1.112 1.956,-1.681c0.602,-0.568 1.029,-1.162 1.28,-1.781c0.25,-0.618 0.267,-1.254 0.05,-1.906c-0.218,-0.652 -0.811,-1.329 -1.781,-2.032c-0.1,-0.033 -0.201,-0.067 -0.301,-0.1c-0.1,-0.034 -0.218,-0.067 -0.351,-0.101c-1.438,0.067 -2.76,0.502 -3.964,1.305c-1.204,0.803 -2.24,1.772 -3.11,2.91c-0.468,0.568 -0.978,0.886 -1.53,0.953c-0.552,0.067 -1.029,-0.042 -1.43,-0.326c-0.401,-0.285 -0.661,-0.703 -0.778,-1.254c-0.117,-0.552 0.025,-1.146 0.427,-1.781c0.669,-0.87 1.463,-1.706 2.383,-2.509c0.92,-0.803 1.906,-1.471 2.96,-2.007c1.053,-0.535 2.132,-0.919 3.236,-1.153c1.103,-0.235 2.157,-0.243 3.16,-0.026c1.004,0.218 1.932,0.694 2.785,1.43c0.852,0.736 1.563,1.806 2.132,3.211c0.368,0.903 0.518,1.773 0.451,2.609c-0.067,0.836 -0.267,1.639 -0.602,2.408c-0.334,0.769 -0.786,1.48 -1.354,2.132c-0.569,0.652 -1.204,1.263 -1.907,1.831c-0.234,0.201 -0.644,0.493 -1.229,0.878c-0.585,0.385 -1.145,0.819 -1.681,1.304c-0.535,0.485 -0.961,0.987 -1.279,1.506c-0.318,0.518 -0.359,1.028 -0.125,1.53c0.067,0.067 0.117,0.1 0.15,0.1c0.101,0.067 0.209,0.1 0.326,0.1c0.117,0 0.226,0.017 0.326,0.05Zm-4.214,9.131c0,-0.769 0.268,-1.421 0.803,-1.956c0.535,-0.536 1.187,-0.803 1.957,-0.803c0.769,0 1.429,0.267 1.981,0.803c0.552,0.535 0.828,1.187 0.828,1.956c0,0.769 -0.276,1.43 -0.828,1.982c-0.552,0.552 -1.212,0.828 -1.981,0.828c-0.77,0 -1.422,-0.276 -1.957,-0.828c-0.535,-0.552 -0.803,-1.213 -0.803,-1.982Z" style="fill:#fff;fill-opacity:0.184314;fill-rule:nonzero;"/><path d="M247.863,63.296c0.356,0.269 0.561,0.573 0.617,0.912c0.055,0.339 0.002,0.631 -0.158,0.875c-0.161,0.245 -0.406,0.412 -0.737,0.503c-0.331,0.091 -0.695,0.027 -1.092,-0.192c-0.527,-0.336 -0.917,-0.744 -1.169,-1.224c-0.252,-0.481 -0.379,-0.974 -0.38,-1.478c-0.002,-0.505 0.134,-0.999 0.409,-1.484c0.276,-0.485 0.686,-0.895 1.233,-1.231c0.346,-0.217 0.775,-0.407 1.287,-0.57c0.513,-0.163 1.029,-0.324 1.551,-0.484c0.522,-0.159 1.017,-0.335 1.485,-0.526c0.468,-0.191 0.842,-0.435 1.121,-0.732c0.279,-0.297 0.429,-0.655 0.449,-1.075c0.019,-0.419 -0.169,-0.936 -0.567,-1.549c-0.05,-0.042 -0.1,-0.083 -0.149,-0.124c-0.05,-0.041 -0.109,-0.086 -0.178,-0.134c-0.834,-0.279 -1.682,-0.323 -2.545,-0.131c-0.862,0.192 -1.667,0.516 -2.413,0.972c-0.392,0.22 -0.752,0.289 -1.081,0.205c-0.329,-0.083 -0.577,-0.25 -0.742,-0.501c-0.166,-0.25 -0.222,-0.545 -0.167,-0.885c0.055,-0.34 0.267,-0.647 0.635,-0.921c0.573,-0.347 1.21,-0.648 1.91,-0.903c0.701,-0.254 1.41,-0.418 2.128,-0.49c0.718,-0.073 1.417,-0.054 2.098,0.056c0.68,0.109 1.282,0.337 1.805,0.682c0.524,0.345 0.947,0.821 1.271,1.428c0.323,0.607 0.492,1.373 0.506,2.298c0.011,0.596 -0.095,1.124 -0.317,1.585c-0.223,0.462 -0.514,0.875 -0.874,1.239c-0.36,0.365 -0.774,0.67 -1.241,0.916c-0.468,0.246 -0.964,0.454 -1.49,0.623c-0.177,0.062 -0.475,0.139 -0.893,0.229c-0.418,0.09 -0.833,0.214 -1.245,0.372c-0.411,0.159 -0.765,0.35 -1.06,0.576c-0.295,0.225 -0.431,0.506 -0.409,0.843c0.024,0.053 0.045,0.083 0.064,0.091c0.042,0.06 0.097,0.103 0.164,0.129c0.066,0.025 0.125,0.059 0.174,0.1Zm-4.412,4.271c0.17,-0.438 0.466,-0.75 0.888,-0.937c0.423,-0.187 0.853,-0.195 1.292,-0.026c0.438,0.17 0.755,0.468 0.951,0.894c0.197,0.426 0.21,0.859 0.04,1.297c-0.169,0.438 -0.472,0.753 -0.908,0.946c-0.436,0.192 -0.873,0.204 -1.311,0.035c-0.438,-0.17 -0.748,-0.471 -0.932,-0.903c-0.183,-0.432 -0.19,-0.868 -0.02,-1.306Z" style="fill:#fff;fill-opacity:0.184314;fill-rule:nonzero;"/><path d="M206.487,74.597c0.542,-0.153 1.005,-0.128 1.388,0.075c0.384,0.203 0.638,0.479 0.762,0.827c0.124,0.348 0.105,0.723 -0.055,1.126c-0.161,0.403 -0.503,0.721 -1.027,0.953c-0.74,0.276 -1.449,0.357 -2.125,0.244c-0.677,-0.113 -1.27,-0.361 -1.78,-0.744c-0.509,-0.383 -0.903,-0.898 -1.182,-1.545c-0.278,-0.647 -0.379,-1.374 -0.301,-2.181c0.047,-0.514 0.183,-1.091 0.409,-1.732c0.227,-0.64 0.458,-1.284 0.696,-1.931c0.237,-0.647 0.438,-1.28 0.602,-1.897c0.165,-0.618 0.204,-1.18 0.118,-1.688c-0.087,-0.508 -0.333,-0.932 -0.741,-1.272c-0.407,-0.34 -1.072,-0.544 -1.993,-0.612c-0.08,0.019 -0.159,0.038 -0.239,0.056c-0.079,0.019 -0.169,0.045 -0.271,0.077c-0.917,0.627 -1.608,1.449 -2.073,2.464c-0.464,1.016 -0.752,2.073 -0.861,3.172c-0.077,0.564 -0.283,0.979 -0.618,1.247c-0.335,0.268 -0.692,0.39 -1.071,0.366c-0.379,-0.024 -0.719,-0.193 -1.019,-0.508c-0.301,-0.315 -0.449,-0.762 -0.443,-1.342c0.086,-0.843 0.269,-1.714 0.547,-2.614c0.278,-0.9 0.654,-1.739 1.129,-2.518c0.475,-0.779 1.027,-1.469 1.656,-2.07c0.63,-0.602 1.318,-1.035 2.065,-1.299c0.747,-0.264 1.55,-0.328 2.408,-0.191c0.859,0.137 1.759,0.552 2.703,1.243c0.607,0.444 1.059,0.954 1.354,1.53c0.296,0.576 0.489,1.184 0.582,1.825c0.092,0.64 0.084,1.29 -0.024,1.949c-0.109,0.659 -0.279,1.317 -0.509,1.976c-0.072,0.226 -0.223,0.585 -0.451,1.075c-0.228,0.49 -0.42,1.002 -0.574,1.538c-0.155,0.535 -0.231,1.038 -0.229,1.507c0.001,0.469 0.181,0.821 0.538,1.055c0.071,0.017 0.117,0.019 0.139,0.005c0.093,0.003 0.178,-0.019 0.255,-0.066c0.077,-0.048 0.155,-0.081 0.235,-0.1Zm0.937,7.704c-0.312,-0.505 -0.401,-1.041 -0.267,-1.61c0.135,-0.568 0.454,-1.008 0.959,-1.321c0.505,-0.312 1.047,-0.404 1.627,-0.276c0.579,0.127 1.025,0.443 1.337,0.948c0.312,0.505 0.399,1.051 0.26,1.637c-0.138,0.586 -0.46,1.035 -0.965,1.347c-0.505,0.312 -1.045,0.396 -1.62,0.251c-0.575,-0.146 -1.019,-0.471 -1.331,-0.976Z" style="fill:#fff;fill-opacity:0.184314;fill-rule:nonzero;"/><path d="M299.468,77.494c0.424,0.372 0.655,0.774 0.694,1.206c0.038,0.432 -0.055,0.795 -0.279,1.088c-0.225,0.294 -0.549,0.483 -0.975,0.568c-0.425,0.084 -0.878,-0.03 -1.358,-0.342c-0.634,-0.471 -1.088,-1.021 -1.362,-1.65c-0.274,-0.629 -0.389,-1.261 -0.346,-1.897c0.044,-0.636 0.261,-1.247 0.652,-1.833c0.391,-0.586 0.946,-1.066 1.665,-1.44c0.457,-0.242 1.015,-0.442 1.676,-0.601c0.66,-0.159 1.326,-0.315 1.998,-0.469c0.672,-0.153 1.312,-0.329 1.919,-0.528c0.608,-0.198 1.101,-0.472 1.48,-0.821c0.379,-0.349 0.6,-0.787 0.664,-1.313c0.063,-0.527 -0.128,-1.195 -0.573,-2.005c-0.059,-0.057 -0.118,-0.113 -0.177,-0.169c-0.059,-0.057 -0.13,-0.119 -0.212,-0.186c-1.026,-0.428 -2.091,-0.56 -3.196,-0.396c-1.105,0.163 -2.148,0.498 -3.13,1.005c-0.514,0.242 -0.974,0.296 -1.382,0.16c-0.407,-0.135 -0.703,-0.368 -0.89,-0.698c-0.186,-0.331 -0.229,-0.708 -0.129,-1.132c0.1,-0.424 0.395,-0.791 0.885,-1.102c0.753,-0.386 1.583,-0.708 2.489,-0.965c0.907,-0.257 1.816,-0.398 2.727,-0.425c0.912,-0.026 1.791,0.061 2.639,0.262c0.847,0.2 1.585,0.542 2.213,1.024c0.629,0.483 1.119,1.121 1.472,1.916c0.353,0.794 0.496,1.775 0.429,2.943c-0.04,0.751 -0.222,1.408 -0.544,1.969c-0.323,0.562 -0.727,1.056 -1.214,1.482c-0.487,0.427 -1.037,0.774 -1.648,1.041c-0.612,0.268 -1.257,0.485 -1.934,0.65c-0.23,0.063 -0.612,0.132 -1.147,0.207c-0.535,0.076 -1.07,0.195 -1.603,0.357c-0.533,0.162 -0.996,0.371 -1.389,0.628c-0.392,0.257 -0.59,0.599 -0.592,1.027c0.025,0.068 0.049,0.108 0.072,0.119c0.048,0.08 0.113,0.139 0.195,0.178c0.081,0.038 0.152,0.086 0.211,0.142Zm-5.951,4.982c0.254,-0.536 0.656,-0.903 1.205,-1.1c0.55,-0.197 1.094,-0.169 1.63,0.085c0.537,0.253 0.91,0.658 1.119,1.213c0.208,0.555 0.186,1.101 -0.068,1.638c-0.253,0.537 -0.664,0.907 -1.231,1.11c-0.567,0.203 -1.118,0.178 -1.655,-0.076c-0.537,-0.253 -0.901,-0.661 -1.093,-1.222c-0.191,-0.562 -0.16,-1.111 0.093,-1.648Z" style="fill:#fff;fill-opacity:0.184314;fill-rule:nonzero;"/></svg>